<svg version="1.1" xmlns="http://www.w3.org/2000/svg" viewBox="0 0 719.8333333333333 983.4999999999998" width="719.8333333333333" height="983.4999999999998">
  <!-- svg-source:excalidraw -->
  
  <defs>
    <style>
      @font-face {
        font-family: "Virgil";
        src: url("https://excalidraw.com/Virgil.woff2");
      }
      @font-face {
        font-family: "Cascadia";
        src: url("https://excalidraw.com/Cascadia.woff2");
      }
    </style>
  </defs>
  <rect x="0" y="0" width="719.8333333333333" height="983.4999999999998" fill="#ffffff"></rect><g stroke-linecap="round" transform="translate(35 10) rotate(0 126.5 35.5)"><path d="M-0.73 -1.56 C59.79 -0.4, 120.37 -1.35, 252.63 -1.45 M0.58 0.1 C67.17 -0.28, 133.52 1.16, 253.35 0.57 M254.9 1.82 C251.42 27.46, 252.18 57.08, 253.93 71.95 M252.99 0.9 C252.49 17.56, 253.4 33.29, 253.2 70.75 M251.4 72.59 C152.38 68.95, 52.76 68.33, 0.29 71.09 M252.44 71.58 C172.39 71.48, 92.47 72.97, -0.61 70.52 M1.38 69.9 C-1.82 46.03, -1.95 21.14, -1.69 0.22 M0.62 70.51 C-1.49 54.48, -1.49 39.34, 0.52 -0.18" stroke="#000000" stroke-width="1" fill="none"></path></g><g transform="translate(67 19) rotate(0 96.5 26)"><text x="96.5" y="19" font-family="Virgil, Segoe UI Emoji" font-size="20px" fill="#000000" text-anchor="middle" style="white-space: pre;" direction="ltr">Long read alignment</text><text x="96.5" y="45" font-family="Virgil, Segoe UI Emoji" font-size="20px" fill="#000000" text-anchor="middle" style="white-space: pre;" direction="ltr"> (* .bam)</text></g><g stroke-linecap="round" transform="translate(35 188.10000000000002) rotate(0 126.5 35.5)"><path d="M0.11 0.71 C66.68 -1.34, 136.4 0.54, 253.8 -1.12 M0.52 0.09 C62.77 -2.11, 123.78 -1.88, 252.89 0.1 M251.47 -0.3 C254.46 26.99, 253.94 56.05, 252.91 71.86 M252.34 0.28 C254.31 18.17, 253.34 38, 253.69 71.87 M251.52 69.54 C164.09 71.97, 79.1 70.15, 0.5 72.1 M253.79 71.8 C155.1 70.6, 57.03 71.96, 0.69 71.27 M1.08 70.24 C-0.31 47.27, 2.16 19.83, 1.02 -0.86 M-0.18 70.82 C-0.82 43.18, -0.42 14.89, 0.79 -0.76" stroke="#000000" stroke-width="1" fill="none"></path></g><g transform="translate(81 198.10000000000002) rotate(0 73.5 26)"><text x="73.5" y="19" font-family="Virgil, Segoe UI Emoji" font-size="20px" fill="#000000" text-anchor="middle" style="white-space: pre;" direction="ltr">Oriented reads</text><text x="73.5" y="45" font-family="Virgil, Segoe UI Emoji" font-size="20px" fill="#000000" text-anchor="middle" style="white-space: pre;" direction="ltr">(*.fasta)</text></g><g stroke-linecap="round" transform="translate(35 366.20000000000005) rotate(0 126.5 35.5)"><path d="M-1.5 -0.85 C72.63 0.98, 145.67 0.82, 251.58 -1.31 M0.36 -0.13 C77.89 0.57, 156.69 0.75, 253.22 0.6 M254.32 -1.72 C251.57 15.58, 251.62 30.72, 254.93 71.01 M253.17 -0.37 C252.57 22.09, 251.95 46.65, 252.18 70.73 M254.54 71.34 C183.27 71.91, 112.41 71.55, -1.3 71.56 M253.39 71.05 C186.89 71.86, 119.87 70.53, 0.03 70.41 M-0.41 72.94 C-0.32 50.49, 1.23 33.69, -0.27 0.9 M-0.35 70.94 C0.51 45, -0.21 20.68, -0.88 -0.53" stroke="#000000" stroke-width="1" fill="none"></path></g><g transform="translate(78 375.20000000000005) rotate(0 87.5 26)"><text x="87.5" y="19" font-family="Virgil, Segoe UI Emoji" font-size="20px" fill="#000000" text-anchor="middle" style="white-space: pre;" direction="ltr">Repeat candidaes</text><text x="87.5" y="45" font-family="Virgil, Segoe UI Emoji" font-size="20px" fill="#000000" text-anchor="middle" style="white-space: pre;" direction="ltr">(*.trf.dat)</text></g><g stroke-linecap="round" transform="translate(10 276.15000000000003) rotate(0 151.5 36.50000000000003)"><path d="M151.59 0.46 C200.25 13.14, 251.28 24.57, 302.73 38.54 M151.33 -0.51 C183.06 7.82, 215.18 15.29, 302.65 37.91 M304.67 37.97 C262.15 45.02, 220.1 55.5, 151.91 73.85 M303.85 37.14 C267.42 46.43, 233.01 53.32, 152.41 72.66 M150.91 72.49 C92.69 58.55, 34.35 45.42, 0.29 35.34 M151.91 73.23 C99.42 61.58, 47.45 49.68, -0.31 36.99 M0.18 37.43 C49.61 23.8, 98.66 13.84, 151.68 1.14 M0.62 37.58 C37.91 27.92, 75.56 17.65, 151.93 0.55" stroke="#000000" stroke-width="1" fill="none"></path></g><g transform="translate(58 298.65000000000003) rotate(0 104.5 13)"><text x="104.5" y="19" font-family="Virgil, Segoe UI Emoji" font-size="20px" fill="#000000" text-anchor="middle" style="white-space: pre;" direction="ltr">Tandem Repat Finder</text></g><g stroke-linecap="round" transform="translate(10 98.05000000000001) rotate(0 151.5 36.50000000000003)"><path d="M153.48 -0.61 C199.16 12.14, 248.65 20.83, 303.29 36.51 M151.23 -0.11 C191.12 11.22, 229.77 19.89, 303.16 37.23 M304.02 38.5 C265.16 43.35, 225.61 56.25, 150.55 73.6 M302.18 36.39 C246.31 49.01, 187.4 62.71, 152.11 73.23 M150.44 73.86 C113.71 63.05, 77.61 54.26, -1.04 35.17 M152.2 72.49 C106.74 61.74, 63.34 51.25, -0.28 36.7 M1.33 37.98 C32.54 29.57, 61.66 20.09, 151.18 0.35 M-0.49 37.5 C46.5 26, 91.25 14.51, 151.47 0.85" stroke="#000000" stroke-width="1" fill="none"></path></g><g transform="translate(88 120.55000000000001) rotate(0 74.5 13)"><text x="74.5" y="19" font-family="Virgil, Segoe UI Emoji" font-size="20px" fill="#000000" text-anchor="middle" style="white-space: pre;" direction="ltr">Extract Reads</text></g><g stroke-linecap="round" transform="translate(10 454.25) rotate(0 151.5 36.5)"><path d="M153.19 -0.6 C193.76 11.77, 239.57 23.19, 302.4 35.62 M152.18 0.38 C200.84 11.2, 248.11 23.71, 302.78 37.96 M301.57 36.25 C267.58 44.83, 234.51 53.57, 153.09 71.22 M303.74 37.91 C263.55 45.07, 222.74 55.02, 152.77 72.02 M151.76 73.3 C106.76 61.17, 56.15 51.63, 0.56 36.47 M152.08 73.41 C92.18 58.83, 34.85 45.1, -0.07 36.16 M0.45 36.38 C50.66 24.82, 101.07 13.45, 151.97 1.44 M0.79 36.61 C32.52 28.04, 64.04 20.39, 151.91 0.19" stroke="#000000" stroke-width="1" fill="none"></path></g><g transform="translate(96.5 476.75) rotate(0 66 13)"><text x="66" y="19" font-family="Virgil, Segoe UI Emoji" font-size="20px" fill="#000000" text-anchor="middle" style="white-space: pre;" direction="ltr">Repeat Filter</text></g><g stroke-linecap="round" transform="translate(35 544.3) rotate(0 126.5 35.5)"><path d="M0.77 -0.4 C90.01 -1.21, 177 0.11, 253.57 -0.48 M-0.7 -0.24 C62.94 0.04, 127.81 -0.91, 253.45 0.34 M251.92 -0.62 C252.58 23.2, 252.68 41.32, 252.35 71.44 M252.67 1 C253.9 24.42, 253.55 49.06, 252.8 71.42 M253.74 72.22 C171.61 69.59, 89.86 71.58, 1.24 70.76 M253.31 70.35 C178.85 70.96, 102.93 70.96, 0.16 70.88 M-0.24 71.13 C1.24 54.28, 0.13 33.13, -1.85 0.06 M-0.12 70.26 C0.08 51.95, 0.3 35.21, -0.41 -0.48" stroke="#000000" stroke-width="1" fill="none"></path></g><g transform="translate(68.5 553.3) rotate(0 97 26)"><text x="97" y="19" font-family="Virgil, Segoe UI Emoji" font-size="20px" fill="#000000" text-anchor="middle" style="white-space: pre;" direction="ltr">Raw Repeats</text><text x="97" y="45" font-family="Virgil, Segoe UI Emoji" font-size="20px" fill="#000000" text-anchor="middle" style="white-space: pre;" direction="ltr">(*.repeats_raw.csv)</text></g><g stroke-linecap="round" transform="translate(10 632.3499999999999) rotate(0 151.5 36.5)"><path d="M151.93 -1.82 C182.97 10.25, 215.53 16.64, 304.92 38.87 M151.32 -0.58 C182.56 7.36, 214.97 16.03, 303.24 37.22 M303.64 35.1 C268.92 43.14, 238.18 51.66, 153.49 73.66 M302.07 36.5 C253.66 49.76, 206.37 61.11, 151.4 72.73 M150.3 72.83 C103.72 60.06, 59.78 52.08, -1.05 36.46 M152.34 73.52 C103.56 63.04, 55.82 50.91, -0.72 36.62 M0.61 38.4 C60.59 23.72, 119.78 9.57, 150.3 -1.35 M-0.25 36.07 C38.1 27.91, 75.82 18.75, 152.61 -0.48" stroke="#000000" stroke-width="1" fill="none"></path></g><g transform="translate(96 645.8499999999999) rotate(0 66.5 26)"><text x="66.5" y="19" font-family="Virgil, Segoe UI Emoji" font-size="20px" fill="#000000" text-anchor="middle" style="white-space: pre;" direction="ltr">1st Clustering</text><text x="66.5" y="45" font-family="Virgil, Segoe UI Emoji" font-size="20px" fill="#000000" text-anchor="middle" style="white-space: pre;" direction="ltr">Loci</text></g><g stroke-linecap="round" transform="translate(35 812.4499999999998) rotate(0 126.5 35.5)"><path d="M0 -1.04 C96.07 -0.54, 190.68 -0.36, 251.85 0.11 M0.43 -0.11 C95.36 0.89, 189.56 0.22, 252.5 -0.37 M254.58 -0.75 C254.79 15.94, 251.28 27.8, 253.77 72.36 M253.13 0.83 C252.84 24.7, 252.82 51.1, 252.09 71.17 M252.4 70.27 C173.55 73.91, 91.49 72.34, -0.26 71.89 M252.83 71.36 C183.71 68.72, 112.89 69.31, -0.42 70.68 M-0.54 69.75 C-1.06 55.55, 1.75 37.7, -0.07 -1.72 M0.82 71.53 C-0.35 53.69, -0.12 34.41, 0.05 -0.35" stroke="#000000" stroke-width="1" fill="none"></path></g><g transform="translate(59 821.4499999999998) rotate(0 106.5 26)"><text x="106.5" y="19" font-family="Virgil, Segoe UI Emoji" font-size="20px" fill="#000000" text-anchor="middle" style="white-space: pre;" direction="ltr">Phased repeats</text><text x="106.5" y="45" font-family="Virgil, Segoe UI Emoji" font-size="20px" fill="#000000" text-anchor="middle" style="white-space: pre;" direction="ltr">(*.repeats_phsed.csv)</text></g><g stroke-linecap="round" transform="translate(10 722.3999999999999) rotate(0 151.5 36.5)"><path d="M153.73 0.98 C203.83 13.26, 258.6 27.69, 301.73 37.46 M151.67 -0.52 C201.46 13.41, 251.85 26.64, 302.59 36.51 M304.68 37.92 C246.18 53.16, 190.65 63.38, 150.18 71.07 M302.8 36.37 C244.76 50.72, 187.67 64.74, 151.67 73.89 M150.23 72.18 C101.79 61.03, 49.01 50.43, 1.18 37.22 M152.03 72.9 C98.56 60.2, 43.53 47.76, 0.53 37.22 M1.02 38.48 C53.33 22.91, 105.26 10.18, 150.35 1.95 M-0.98 36.42 C52.78 25.29, 106.35 12.1, 151.54 -0.54" stroke="#000000" stroke-width="1" fill="none"></path></g><g transform="translate(92.5 735.8999999999999) rotate(0 70 26)"><text x="70" y="19" font-family="Virgil, Segoe UI Emoji" font-size="20px" fill="#000000" text-anchor="middle" style="white-space: pre;" direction="ltr">2nd Clustering</text><text x="70" y="45" font-family="Virgil, Segoe UI Emoji" font-size="20px" fill="#000000" text-anchor="middle" style="white-space: pre;" direction="ltr">Alleles</text></g><g stroke-linecap="round" transform="translate(10 900.4999999999998) rotate(0 151.5 36.5)"><path d="M152.51 -1.41 C204.47 12.76, 257.14 25.93, 302.2 38.16 M151.26 -0.9 C187.24 10.11, 222.88 18, 302.47 37.53 M304.65 35.62 C246.83 50.1, 192.64 64.16, 153.6 74.66 M303.79 36.48 C262.02 46.85, 221.59 57.68, 151.63 73.72 M152.32 71.62 C106.49 63.98, 61.21 51.4, -0.32 36.17 M152.89 72.62 C93.26 58.87, 35.53 43.72, -0.21 36.35 M1.51 37.87 C38.92 26.33, 81.33 18.14, 152.38 -1.31 M0.63 37.39 C43.16 26.57, 86.07 14.57, 151.32 -0.85" stroke="#000000" stroke-width="1" fill="none"></path></g><g transform="translate(112.5 913.9999999999998) rotate(0 50 26)"><text x="50" y="19" font-family="Virgil, Segoe UI Emoji" font-size="20px" fill="#000000" text-anchor="middle" style="white-space: pre;" direction="ltr">Plotting &amp;</text><text x="50" y="45" font-family="Virgil, Segoe UI Emoji" font-size="20px" fill="#000000" text-anchor="middle" style="white-space: pre;" direction="ltr">Stats</text></g><g stroke-linecap="round" transform="translate(456.83333333333326 377.94444444444457) rotate(0 126.5 35.5)"><path d="M-0.85 1.41 C59.68 -3.15, 120.82 -1.1, 252.14 0.29 M-0.55 -0.01 C78.17 -1.78, 155.24 -2.14, 253.01 0.33 M254.56 -1.86 C252.98 23.05, 252.14 41.51, 251.03 70.02 M253.18 0.06 C253.89 17.99, 252.46 34.04, 252.06 70.79 M251.38 69.52 C159.58 69.98, 69.82 71.75, 1.29 70.24 M253.4 70.56 C201.24 68.83, 149.9 68.68, 0.65 70.43 M1.55 72.54 C-1.49 45.03, 1.54 18.23, -0.29 -1.98 M-0.01 71.06 C0.13 55.39, 0.79 39.68, 0.81 0.1" stroke="#000000" stroke-width="1" fill="none"></path></g><g transform="translate(512.3333333333333 386.94444444444457) rotate(0 73 26)"><text x="73" y="19" font-family="Virgil, Segoe UI Emoji" font-size="20px" fill="#000000" text-anchor="middle" style="white-space: pre;" direction="ltr">Target regions</text><text x="73" y="45" font-family="Virgil, Segoe UI Emoji" font-size="20px" fill="#000000" text-anchor="middle" style="white-space: pre;" direction="ltr"> (* .bed)</text></g><g stroke-linecap="round"><g transform="translate(161.5535557437736 80.16282389108463) rotate(0 0.15252175597214546 10.325090794189435)"><path d="M-0.82 -0.3 C-0.56 3.06, 0.82 16.9, 1.13 20.52 M0.95 -1.5 C1.12 2.04, 0.49 18.63, 0.39 22.15" stroke="#000000" stroke-width="1" fill="none"></path></g><g transform="translate(161.5535557437736 80.16282389108463) rotate(0 0.15252175597214546 10.325090794189435)"><path d="M-3.03 12.82 C-1.77 15.3, -0.17 18.5, -0.15 22.25 M-2.84 12.44 C-1.94 16.29, -0.04 19.36, 0 22.19" stroke="#000000" stroke-width="1" fill="none"></path></g><g transform="translate(161.5535557437736 80.16282389108463) rotate(0 0.15252175597214546 10.325090794189435)"><path d="M3.93 13.04 C3.35 15.42, 3.11 18.56, -0.15 22.25 M4.12 12.66 C2.4 16.45, 1.67 19.44, 0 22.19" stroke="#000000" stroke-width="1" fill="none"></path></g></g><g stroke-linecap="round"><g transform="translate(162.62498431520214 170.87710960537032) rotate(0 0.8374518066733572 10.384592310977865)"><path d="M-0.3 -0.73 C-0.3 2.73, -0.53 17.81, -0.21 21.5 M1.74 1.51 C2.13 4.53, 2.08 16.04, 2.01 19.6" stroke="#000000" stroke-width="1" fill="none"></path></g><g transform="translate(162.62498431520214 170.87710960537032) rotate(0 0.8374518066733572 10.384592310977865)"><path d="M-2.14 8.84 C-0.08 13.25, 0.79 14.57, 2.47 19.52 M-1.82 9.7 C-0.74 12.75, 1.35 16.14, 2.03 19.48" stroke="#000000" stroke-width="1" fill="none"></path></g><g transform="translate(162.62498431520214 170.87710960537032) rotate(0 0.8374518066733572 10.384592310977865)"><path d="M5.07 8.91 C5.1 13.28, 3.96 14.58, 2.47 19.52 M5.39 9.76 C3.95 12.79, 3.52 16.16, 2.03 19.48" stroke="#000000" stroke-width="1" fill="none"></path></g></g><g stroke-linecap="round"><g transform="translate(160.83927002948792 256.94853817679893) rotate(0 0.19684133114554925 13.779204121428279)"><path d="M-0.94 -0.83 C-0.89 3.93, 0.82 22.62, 1.33 27.44 M0.77 1.35 C0.54 6.31, 0.01 23.75, 0.15 28.39" stroke="#000000" stroke-width="1" fill="none"></path></g><g transform="translate(160.83927002948792 256.94853817679893) rotate(0 0.19684133114554925 13.779204121428279)"><path d="M-5.68 14.38 C-4.3 20.59, -1.64 26.2, -0.4 29.26 M-4.74 15.03 C-2.66 20.07, -1.15 24.03, 0.66 28.45" stroke="#000000" stroke-width="1" fill="none"></path></g><g transform="translate(160.83927002948792 256.94853817679893) rotate(0 0.19684133114554925 13.779204121428279)"><path d="M4.11 14.42 C1.72 20.53, 0.62 26.13, -0.4 29.26 M5.05 15.07 C3.86 20, 2.1 23.95, 0.66 28.45" stroke="#000000" stroke-width="1" fill="none"></path></g></g><g stroke-linecap="round"><g transform="translate(163.6964128866308 346.23425246251315) rotate(0 -1.3617874359446205 13.771825490289245)"><path d="M0.26 0.54 C-0.04 4.79, -2.62 21.98, -2.99 26.42 M-1.06 -0.22 C-0.88 4.12, -0.47 23.55, -0.72 27.76" stroke="#000000" stroke-width="1" fill="none"></path></g><g transform="translate(163.6964128866308 346.23425246251315) rotate(0 -1.3617874359446205 13.771825490289245)"><path d="M-4.58 14.15 C-4.6 17.89, -2.86 20.07, -1.86 27.57 M-5.2 14.92 C-3.57 19.15, -3.1 22.41, -0.91 27.26" stroke="#000000" stroke-width="1" fill="none"></path></g><g transform="translate(163.6964128866308 346.23425246251315) rotate(0 -1.3617874359446205 13.771825490289245)"><path d="M4.61 14.24 C2.74 17.98, 2.62 20.14, -1.86 27.57 M3.99 15.01 C3.13 19.21, 1.1 22.44, -0.91 27.26" stroke="#000000" stroke-width="1" fill="none"></path></g></g><g stroke-linecap="round"><g transform="translate(161.1964128866308 433.73425246251315) rotate(0 0.8072628841669598 15.427333637706795)"><path d="M-0.25 0.94 C0.09 6.14, 0.83 25.65, 0.87 30.46 M1.82 0.39 C2.15 5.35, 0.65 24.4, 0.18 28.96" stroke="#000000" stroke-width="1" fill="none"></path></g><g transform="translate(161.1964128866308 433.73425246251315) rotate(0 0.8072628841669598 15.427333637706795)"><path d="M-2.48 15.44 C-1.51 17.21, -1.53 21.15, -0.32 30.31 M-4.35 14.97 C-2.22 20.59, -0.86 25.73, -0.12 28.37" stroke="#000000" stroke-width="1" fill="none"></path></g><g transform="translate(161.1964128866308 433.73425246251315) rotate(0 0.8072628841669598 15.427333637706795)"><path d="M7.5 16.3 C6.47 17.87, 4.44 21.64, -0.32 30.31 M5.63 15.83 C3.96 21.07, 1.53 25.88, -0.12 28.37" stroke="#000000" stroke-width="1" fill="none"></path></g></g><g stroke-linecap="round"><g transform="translate(162.98212717234503 612.3056810339418) rotate(0 0.13715996108481932 11.082368429094913)"><path d="M-0.76 0.27 C-0.54 4.18, 0.24 19.09, 0.35 22.8 M1.04 -0.63 C1.18 2.98, -0.24 17.52, -0.61 21.02" stroke="#000000" stroke-width="1" fill="none"></path></g><g transform="translate(162.98212717234503 612.3056810339418) rotate(0 0.13715996108481932 11.082368429094913)"><path d="M-3.11 10.28 C-2.21 12.21, -1.86 14.51, -0.69 20.81 M-3.26 9.93 C-2.42 13.54, -1.85 15.87, -0.89 20.89" stroke="#000000" stroke-width="1" fill="none"></path></g><g transform="translate(162.98212717234503 612.3056810339418) rotate(0 0.13715996108481932 11.082368429094913)"><path d="M4.43 11.02 C3.68 12.74, 2.37 14.88, -0.69 20.81 M4.28 10.67 C3.12 14.15, 1.71 16.28, -0.89 20.89" stroke="#000000" stroke-width="1" fill="none"></path></g></g><g stroke-linecap="round"><g transform="translate(162.62498431520214 704.091395319656) rotate(0 -0.8527479133219344 10.903593807086054)"><path d="M-0.18 0.6 C-0.19 4.01, 0.17 17.12, -0.05 20.64 M-1.73 -0.14 C-1.81 3.43, -0.33 18.64, -0.46 21.94" stroke="#000000" stroke-width="1" fill="none"></path></g><g transform="translate(162.62498431520214 704.091395319656) rotate(0 -0.8527479133219344 10.903593807086054)"><path d="M-3.96 13.09 C-3.64 14.77, -1.48 17.82, -0.11 22.88 M-4.41 11.81 C-2.91 14.88, -2.33 18.37, -0.05 21.77" stroke="#000000" stroke-width="1" fill="none"></path></g><g transform="translate(162.62498431520214 704.091395319656) rotate(0 -0.8527479133219344 10.903593807086054)"><path d="M3.25 12.79 C1.39 14.54, 1.37 17.69, -0.11 22.88 M2.8 11.51 C2.07 14.71, 0.4 18.29, -0.05 21.77" stroke="#000000" stroke-width="1" fill="none"></path></g></g><g stroke-linecap="round"><g transform="translate(161.91069860091648 881.9485381767988) rotate(0 0.5919297551470208 10.879114115630841)"><path d="M-0.85 -0.25 C-0.61 3.47, 1.64 18.11, 2.03 21.82 M0.91 -1.43 C0.93 2.51, 1.12 19.08, 1.03 23.19" stroke="#000000" stroke-width="1" fill="none"></path></g><g transform="translate(161.91069860091648 881.9485381767988) rotate(0 0.5919297551470208 10.879114115630841)"><path d="M-2.98 12.62 C-1.78 15.78, -0.3 20.63, 1.67 24.26 M-3.12 12.59 C-1.85 15.39, -1.43 17.53, 0.89 23.67" stroke="#000000" stroke-width="1" fill="none"></path></g><g transform="translate(161.91069860091648 881.9485381767988) rotate(0 0.5919297551470208 10.879114115630841)"><path d="M4.63 12.64 C3.18 15.74, 2 20.58, 1.67 24.26 M4.49 12.62 C3.91 15.45, 2.48 17.58, 0.89 23.67" stroke="#000000" stroke-width="1" fill="none"></path></g></g><g stroke-linecap="round"><g transform="translate(162.37251395947123 524.7380217671979) rotate(0 0.8593872798201119 9.237854166722116)"><path d="M-0.29 -0.49 C-0.09 2.7, 1.61 15.99, 2.01 19.32 M1.76 -1.79 C1.79 1.48, 1.42 16.59, 1.43 20.27" stroke="#000000" stroke-width="1" fill="none"></path></g><g transform="translate(162.37251395947123 524.7380217671979) rotate(0 0.8593872798201119 9.237854166722116)"><path d="M-2.36 11.2 C-1.64 14.87, -0.25 17.63, 1.81 19.99 M-2.28 10.36 C-0.65 14.24, 0.56 17.25, 1.02 20.47" stroke="#000000" stroke-width="1" fill="none"></path></g><g transform="translate(162.37251395947123 524.7380217671979) rotate(0 0.8593872798201119 9.237854166722116)"><path d="M4.64 11.29 C2.78 14.91, 1.59 17.64, 1.81 19.99 M4.72 10.45 C3.98 14.31, 2.82 17.29, 1.02 20.47" stroke="#000000" stroke-width="1" fill="none"></path></g></g><g stroke-linecap="round"><g transform="translate(461.3232669363225 370.8404608358851) rotate(0 -79.46825149152573 -107.43017495578675)"><path d="M-0.52 0.64 C-27.11 -35.39, -132.09 -179.46, -158.42 -215.5" stroke="#000000" stroke-width="1.5" fill="none" stroke-dasharray="1.5 7"></path></g><g transform="translate(461.3232669363225 370.8404608358851) rotate(0 -79.46825149152573 -107.43017495578675)"><path d="M-132.45 -199.35 C-143.05 -206.15, -153.03 -210.1, -157.11 -215.92" stroke="#000000" stroke-width="1.5" fill="none" stroke-dasharray="1.5 5"></path></g><g transform="translate(461.3232669363225 370.8404608358851) rotate(0 -79.46825149152573 -107.43017495578675)"><path d="M-149.02 -187.26 C-153.19 -198.73, -156.66 -207.43, -157.11 -215.92" stroke="#000000" stroke-width="1.5" fill="none" stroke-dasharray="1.5 5"></path></g></g><g stroke-linecap="round"><g transform="translate(449.7293497247738 404.60313457106645) rotate(0 -74.71678180542307 39.32618229621528)"><path d="M0.26 0.26 C-24.6 13.52, -124.71 65.56, -149.7 78.39" stroke="#000000" stroke-width="1.5" fill="none" stroke-dasharray="1.5 7"></path></g><g transform="translate(449.7293497247738 404.60313457106645) rotate(0 -74.71678180542307 39.32618229621528)"><path d="M-128.95 54.56 C-134.63 60.38, -141.82 68.1, -147.92 78.84" stroke="#000000" stroke-width="1.5" fill="none" stroke-dasharray="1.5 5"></path></g><g transform="translate(449.7293497247738 404.60313457106645) rotate(0 -74.71678180542307 39.32618229621528)"><path d="M-119.52 72.78 C-127.46 73.91, -137.1 76.91, -147.92 78.84" stroke="#000000" stroke-width="1.5" fill="none" stroke-dasharray="1.5 5"></path></g></g><g stroke-linecap="round"><g transform="translate(159.7293497247739 787.7912204754316) rotate(0 0.40911425102751764 16.32721789291594)"><path d="M0.88 -0.59 C0.91 4.9, 1.01 26.37, 0.98 31.98 M-0.12 1.71 C-0.31 7.45, 0.12 28.36, 0.1 33.25" stroke="#000000" stroke-width="1" fill="none"></path></g><g transform="translate(159.7293497247739 787.7912204754316) rotate(0 0.40911425102751764 16.32721789291594)"><path d="M-6.41 18.22 C-4.33 23.35, -0.77 28.02, -1.41 32.3 M-5.72 17.67 C-3.88 22.01, -2.55 25.92, 0.13 33.08" stroke="#000000" stroke-width="1" fill="none"></path></g><g transform="translate(159.7293497247739 787.7912204754316) rotate(0 0.40911425102751764 16.32721789291594)"><path d="M4.71 18.11 C2.7 23.36, 2.17 28.07, -1.41 32.3 M5.4 17.56 C4.26 21.9, 2.61 25.85, 0.13 33.08" stroke="#000000" stroke-width="1" fill="none"></path></g></g><g stroke-linecap="round"><g transform="translate(453.06011346050843 450.49706556795866) rotate(0 -73.26684910941503 100.64249561648677)"><path d="M-0.42 0.04 C-24.74 33.59, -122.02 167.94, -146.12 201.25" stroke="#000000" stroke-width="1.5" fill="none" stroke-dasharray="1.5 7"></path></g><g transform="translate(453.06011346050843 450.49706556795866) rotate(0 -73.26684910941503 100.64249561648677)"><path d="M-137.84 171.97 C-138.55 182.03, -143.19 189.05, -146.09 202.42" stroke="#000000" stroke-width="1.5" fill="none" stroke-dasharray="1.5 5"></path></g><g transform="translate(453.06011346050843 450.49706556795866) rotate(0 -73.26684910941503 100.64249561648677)"><path d="M-121.22 184.01 C-126.68 190.56, -136.07 194.14, -146.09 202.42" stroke="#000000" stroke-width="1.5" fill="none" stroke-dasharray="1.5 5"></path></g></g><g transform="translate(309.64204813747256 542.3309030151141) rotate(307.65617199366244 52 13)"><text x="52" y="19" font-family="Virgil, Segoe UI Emoji" font-size="20px" fill="#000000" text-anchor="middle" style="white-space: pre;" direction="ltr">Annotation</text></g></svg>